<mxfile host="app.diagrams.net" agent="Mozilla/5.0 (Windows NT 10.0; Win64; x64) AppleWebKit/537.36 (KHTML, like Gecko) Chrome/128.0.0.0 Safari/537.36" version="24.7.8">
  <diagram name="Page-1" id="uV0MO2vdJGIu-qZ7M7qc">
    <mxGraphModel dx="1050" dy="522" grid="1" gridSize="10" guides="1" tooltips="1" connect="1" arrows="1" fold="1" page="1" pageScale="1" pageWidth="850" pageHeight="1100" math="0" shadow="0">
      <root>
        <mxCell id="0" />
        <mxCell id="1" parent="0" />
        <mxCell id="waTlz56oQQh-r8g_81Fq-1" value="&lt;font style=&quot;vertical-align: inherit;&quot;&gt;&lt;font style=&quot;vertical-align: inherit;&quot;&gt;FS1&lt;/font&gt;&lt;/font&gt;" style="rounded=0;whiteSpace=wrap;html=1;" parent="1" vertex="1">
          <mxGeometry x="20" y="398" width="120" height="60" as="geometry" />
        </mxCell>
        <mxCell id="waTlz56oQQh-r8g_81Fq-3" value="&lt;font style=&quot;vertical-align: inherit;&quot;&gt;&lt;font style=&quot;vertical-align: inherit;&quot;&gt;FS2&lt;/font&gt;&lt;/font&gt;" style="rounded=0;whiteSpace=wrap;html=1;" parent="1" vertex="1">
          <mxGeometry x="220" y="398" width="120" height="60" as="geometry" />
        </mxCell>
        <mxCell id="waTlz56oQQh-r8g_81Fq-6" value="&lt;font style=&quot;vertical-align: inherit;&quot;&gt;&lt;font style=&quot;vertical-align: inherit;&quot;&gt;&lt;font style=&quot;vertical-align: inherit;&quot;&gt;&lt;font style=&quot;vertical-align: inherit;&quot;&gt;Nginx1 66&lt;/font&gt;&lt;/font&gt;&lt;/font&gt;&lt;/font&gt;" style="rounded=0;whiteSpace=wrap;html=1;" parent="1" vertex="1">
          <mxGeometry x="180" y="240" width="120" height="60" as="geometry" />
        </mxCell>
        <mxCell id="waTlz56oQQh-r8g_81Fq-7" value="&lt;font style=&quot;vertical-align: inherit;&quot;&gt;&lt;font style=&quot;vertical-align: inherit;&quot;&gt;Nginx2 67&lt;/font&gt;&lt;/font&gt;" style="rounded=0;whiteSpace=wrap;html=1;" parent="1" vertex="1">
          <mxGeometry x="580" y="240" width="120" height="60" as="geometry" />
        </mxCell>
        <mxCell id="waTlz56oQQh-r8g_81Fq-8" value="DDT1 31" style="rounded=0;whiteSpace=wrap;html=1;" parent="1" vertex="1">
          <mxGeometry x="180" y="110" width="120" height="60" as="geometry" />
        </mxCell>
        <mxCell id="waTlz56oQQh-r8g_81Fq-9" value="DDT2 32" style="rounded=0;whiteSpace=wrap;html=1;" parent="1" vertex="1">
          <mxGeometry x="580" y="110" width="120" height="60" as="geometry" />
        </mxCell>
        <mxCell id="waTlz56oQQh-r8g_81Fq-11" value="" style="shape=flexArrow;endArrow=classic;html=1;rounded=0;" parent="1" edge="1">
          <mxGeometry width="50" height="50" relative="1" as="geometry">
            <mxPoint x="239.5" y="230" as="sourcePoint" />
            <mxPoint x="239.5" y="180" as="targetPoint" />
          </mxGeometry>
        </mxCell>
        <mxCell id="waTlz56oQQh-r8g_81Fq-13" value="" style="shape=flexArrow;endArrow=classic;html=1;rounded=0;" parent="1" edge="1">
          <mxGeometry width="50" height="50" relative="1" as="geometry">
            <mxPoint x="639.5" y="230" as="sourcePoint" />
            <mxPoint x="639.5" y="180" as="targetPoint" />
          </mxGeometry>
        </mxCell>
        <mxCell id="waTlz56oQQh-r8g_81Fq-19" value="" style="shape=flexArrow;endArrow=classic;html=1;rounded=0;" parent="1" edge="1">
          <mxGeometry width="50" height="50" relative="1" as="geometry">
            <mxPoint x="320" y="360" as="sourcePoint" />
            <mxPoint x="530" y="280" as="targetPoint" />
          </mxGeometry>
        </mxCell>
        <mxCell id="waTlz56oQQh-r8g_81Fq-22" value="" style="endArrow=none;dashed=1;html=1;dashPattern=1 3;strokeWidth=2;rounded=0;" parent="1" edge="1">
          <mxGeometry width="50" height="50" relative="1" as="geometry">
            <mxPoint x="10" y="379" as="sourcePoint" />
            <mxPoint x="400" y="379" as="targetPoint" />
          </mxGeometry>
        </mxCell>
        <mxCell id="waTlz56oQQh-r8g_81Fq-23" value="" style="shape=flexArrow;endArrow=classic;html=1;rounded=0;" parent="1" edge="1">
          <mxGeometry width="50" height="50" relative="1" as="geometry">
            <mxPoint x="230" y="360" as="sourcePoint" />
            <mxPoint x="230" y="310" as="targetPoint" />
          </mxGeometry>
        </mxCell>
        <mxCell id="waTlz56oQQh-r8g_81Fq-25" value="" style="endArrow=none;dashed=1;html=1;dashPattern=1 3;strokeWidth=2;rounded=0;" parent="1" edge="1">
          <mxGeometry width="50" height="50" relative="1" as="geometry">
            <mxPoint x="10" y="479" as="sourcePoint" />
            <mxPoint x="10" y="379" as="targetPoint" />
          </mxGeometry>
        </mxCell>
        <mxCell id="waTlz56oQQh-r8g_81Fq-27" value="" style="endArrow=none;dashed=1;html=1;dashPattern=1 3;strokeWidth=2;rounded=0;" parent="1" edge="1">
          <mxGeometry width="50" height="50" relative="1" as="geometry">
            <mxPoint x="394" y="479" as="sourcePoint" />
            <mxPoint x="394" y="379" as="targetPoint" />
          </mxGeometry>
        </mxCell>
        <mxCell id="waTlz56oQQh-r8g_81Fq-28" value="" style="endArrow=none;dashed=1;html=1;dashPattern=1 3;strokeWidth=2;rounded=0;" parent="1" edge="1">
          <mxGeometry width="50" height="50" relative="1" as="geometry">
            <mxPoint x="10" y="479" as="sourcePoint" />
            <mxPoint x="390" y="479" as="targetPoint" />
          </mxGeometry>
        </mxCell>
        <mxCell id="waTlz56oQQh-r8g_81Fq-29" value="&lt;font style=&quot;vertical-align: inherit;&quot;&gt;&lt;font style=&quot;vertical-align: inherit;&quot;&gt;FS3&lt;/font&gt;&lt;/font&gt;" style="rounded=0;whiteSpace=wrap;html=1;" parent="1" vertex="1">
          <mxGeometry x="450" y="398" width="120" height="60" as="geometry" />
        </mxCell>
        <mxCell id="waTlz56oQQh-r8g_81Fq-30" value="&lt;font style=&quot;vertical-align: inherit;&quot;&gt;&lt;font style=&quot;vertical-align: inherit;&quot;&gt;FS4&lt;/font&gt;&lt;/font&gt;" style="rounded=0;whiteSpace=wrap;html=1;" parent="1" vertex="1">
          <mxGeometry x="680" y="398" width="120" height="60" as="geometry" />
        </mxCell>
        <mxCell id="waTlz56oQQh-r8g_81Fq-31" value="" style="endArrow=none;dashed=1;html=1;dashPattern=1 3;strokeWidth=2;rounded=0;" parent="1" edge="1">
          <mxGeometry width="50" height="50" relative="1" as="geometry">
            <mxPoint x="440" y="378.5" as="sourcePoint" />
            <mxPoint x="830" y="378.5" as="targetPoint" />
          </mxGeometry>
        </mxCell>
        <mxCell id="waTlz56oQQh-r8g_81Fq-32" value="" style="endArrow=none;dashed=1;html=1;dashPattern=1 3;strokeWidth=2;rounded=0;" parent="1" edge="1">
          <mxGeometry width="50" height="50" relative="1" as="geometry">
            <mxPoint x="440" y="478.5" as="sourcePoint" />
            <mxPoint x="440" y="378.5" as="targetPoint" />
          </mxGeometry>
        </mxCell>
        <mxCell id="waTlz56oQQh-r8g_81Fq-33" value="" style="endArrow=none;dashed=1;html=1;dashPattern=1 3;strokeWidth=2;rounded=0;" parent="1" edge="1">
          <mxGeometry width="50" height="50" relative="1" as="geometry">
            <mxPoint x="824" y="478.5" as="sourcePoint" />
            <mxPoint x="824" y="378.5" as="targetPoint" />
          </mxGeometry>
        </mxCell>
        <mxCell id="waTlz56oQQh-r8g_81Fq-34" value="" style="endArrow=none;dashed=1;html=1;dashPattern=1 3;strokeWidth=2;rounded=0;" parent="1" edge="1">
          <mxGeometry width="50" height="50" relative="1" as="geometry">
            <mxPoint x="440" y="478.5" as="sourcePoint" />
            <mxPoint x="820" y="478.5" as="targetPoint" />
          </mxGeometry>
        </mxCell>
        <mxCell id="waTlz56oQQh-r8g_81Fq-35" value="" style="shape=flexArrow;endArrow=classic;html=1;rounded=0;" parent="1" edge="1">
          <mxGeometry width="50" height="50" relative="1" as="geometry">
            <mxPoint x="520" y="360" as="sourcePoint" />
            <mxPoint x="350" y="280" as="targetPoint" />
          </mxGeometry>
        </mxCell>
        <mxCell id="waTlz56oQQh-r8g_81Fq-36" value="" style="shape=flexArrow;endArrow=classic;html=1;rounded=0;" parent="1" edge="1">
          <mxGeometry width="50" height="50" relative="1" as="geometry">
            <mxPoint x="639.5" y="360" as="sourcePoint" />
            <mxPoint x="639.5" y="310" as="targetPoint" />
          </mxGeometry>
        </mxCell>
        <mxCell id="SSKZijezHBug4PasgKtx-1" value="&lt;span style=&quot;font-weight: normal;&quot;&gt;&lt;font style=&quot;font-size: 14px;&quot;&gt;TCP转发&lt;/font&gt;&lt;/span&gt;" style="text;strokeColor=none;fillColor=none;html=1;fontSize=24;fontStyle=1;verticalAlign=middle;align=center;" vertex="1" parent="1">
          <mxGeometry x="240" y="170" width="100" height="60" as="geometry" />
        </mxCell>
        <mxCell id="SSKZijezHBug4PasgKtx-2" value="&lt;span style=&quot;font-weight: normal;&quot;&gt;&lt;font style=&quot;font-size: 14px;&quot;&gt;TCP转发&lt;/font&gt;&lt;/span&gt;" style="text;strokeColor=none;fillColor=none;html=1;fontSize=24;fontStyle=1;verticalAlign=middle;align=center;" vertex="1" parent="1">
          <mxGeometry x="650" y="170" width="100" height="60" as="geometry" />
        </mxCell>
        <mxCell id="SSKZijezHBug4PasgKtx-3" value="&lt;span style=&quot;font-size: 14px; font-weight: 400;&quot;&gt;主 66&lt;/span&gt;&lt;div&gt;&lt;span style=&quot;font-size: 14px; font-weight: 400;&quot;&gt;备 67&lt;/span&gt;&lt;/div&gt;" style="text;strokeColor=none;fillColor=none;html=1;fontSize=24;fontStyle=1;verticalAlign=middle;align=center;" vertex="1" parent="1">
          <mxGeometry x="110" y="490" width="100" height="60" as="geometry" />
        </mxCell>
        <mxCell id="SSKZijezHBug4PasgKtx-4" value="&lt;span style=&quot;font-size: 14px; font-weight: 400;&quot;&gt;主 67&lt;/span&gt;&lt;div&gt;&lt;span style=&quot;font-size: 14px; font-weight: 400;&quot;&gt;备 66&lt;/span&gt;&lt;/div&gt;" style="text;strokeColor=none;fillColor=none;html=1;fontSize=24;fontStyle=1;verticalAlign=middle;align=center;" vertex="1" parent="1">
          <mxGeometry x="590" y="490" width="100" height="60" as="geometry" />
        </mxCell>
      </root>
    </mxGraphModel>
  </diagram>
</mxfile>
